<?xml version="1.0" encoding="UTF-8"?>
<svg version="1.1" xmlns="http://www.w3.org/2000/svg" width="32" height="32">
<path d="M0 0 C0.71220703 -0.00386719 1.42441406 -0.00773437 2.15820312 -0.01171875 C3.22264648 -0.00978516 3.22264648 -0.00978516 4.30859375 -0.0078125 C4.93435303 -0.00668457 5.5601123 -0.00555664 6.20483398 -0.00439453 C9.67263471 0.18592693 13.11629963 0.69422495 16.5625 1.125 C16.5625 9.375 16.5625 17.625 16.5625 26.125 C15.9025 26.455 15.2425 26.785 14.5625 27.125 C14.5625 28.115 14.5625 29.105 14.5625 30.125 C11.5625 32.125 11.5625 32.125 7.5625 32.125 C7.5625 31.465 7.5625 30.805 7.5625 30.125 C6.5725 30.125 5.5825 30.125 4.5625 30.125 C4.5625 30.785 4.5625 31.445 4.5625 32.125 C1.5925 32.125 -1.3775 32.125 -4.4375 32.125 C-4.4375 31.465 -4.4375 30.805 -4.4375 30.125 C-5.4275 30.125 -6.4175 30.125 -7.4375 30.125 C-7.4375 30.785 -7.4375 31.445 -7.4375 32.125 C-12.1875 31.25 -12.1875 31.25 -14.4375 30.125 C-15.62456377 26.8714619 -15.5526723 23.69877048 -15.53515625 20.265625 C-15.53193359 19.15058594 -15.52871094 18.03554688 -15.52539062 16.88671875 C-15.51701172 15.72785156 -15.50863281 14.56898437 -15.5 13.375 C-15.49548828 12.20066406 -15.49097656 11.02632812 -15.48632812 9.81640625 C-15.47455094 6.91921928 -15.45810326 4.02213546 -15.4375 1.125 C-10.2439778 0.26510014 -5.25963661 -0.02840488 0 0 Z " fill="#949494" transform="translate(15.4375,-0.125)"/>
<path d="M0 0 C0.99 0.33 1.98 0.66 3 1 C4.33106622 1.34227417 5.66400079 1.67751743 7 2 C7 2.66 7 3.32 7 4 C8.423125 3.938125 8.423125 3.938125 9.875 3.875 C13 4 13 4 15 6 C15.22705078 8.52197266 15.22705078 8.52197266 15.1953125 11.6640625 C15.18564453 13.34628906 15.18564453 13.34628906 15.17578125 15.0625 C15.15902344 16.238125 15.14226563 17.41375 15.125 18.625 C15.11597656 19.80835937 15.10695313 20.99171875 15.09765625 22.2109375 C15.07402812 25.14082523 15.04108514 28.0703134 15 31 C13.68 31 12.36 31 11 31 C11 30.34 11 29.68 11 29 C10.01 29 9.02 29 8 29 C8 29.66 8 30.32 8 31 C3.25 30.125 3.25 30.125 1 29 C-0.18706377 25.7464619 -0.1151723 22.57377048 -0.09765625 19.140625 C-0.09443359 18.02558594 -0.09121094 16.91054688 -0.08789062 15.76171875 C-0.07951172 14.60285156 -0.07113281 13.44398437 -0.0625 12.25 C-0.05798828 11.07566406 -0.05347656 9.90132812 -0.04882812 8.69140625 C-0.03705094 5.79421928 -0.02060326 2.89713546 0 0 Z " fill="#CFCFCF" transform="translate(0,1)"/>
</svg>
